<svg width="20" height="20" version="1.1" viewBox="0 0 5.2917 5.2917" xml:space="preserve" xmlns="http://www.w3.org/2000/svg"><path d="m0.57227 0.71094a0.17079 0.17079 0 0 0-0.16992 0.17188 0.17079 0.17079 0 0 0 0.16992 0.16992h0.57617l0.80273 2.668a0.17081 0.17081 0 0 0 0.16211 0.12109h2.0645a0.17079 0.17079 0 0 0 0.16992-0.17188 0.17079 0.17079 0 0 0-0.16992-0.16992h-1.9375l-0.80273-2.666a0.17081 0.17081 0 0 0-0.16211-0.12305z" style="stop-color:#000000;stroke-linecap:round;stroke-linejoin:round"/><path d="m1.5137 1.4141a0.17079 0.17079 0 0 0-0.16406 0.21875l0.41602 1.4043a0.17079 0.17079 0 0 0 0.16406 0.12109h2.3594a0.17079 0.17079 0 0 0 0.16211-0.11914l0.43164-1.4043a0.17079 0.17079 0 0 0-0.16406-0.2207zm0.22656 0.33984h2.7461l-0.32422 1.0625h-2.1055z" style="stop-color:#000000;stroke-linecap:round;stroke-linejoin:round"/><path d="m2.4375 1.5508-0.33594 0.066406 0.28516 1.4043 0.33398-0.066406z" style="stop-color:#000000"/><path d="m3.7617 1.5508-0.2832 1.4043 0.33398 0.066406 0.28516-1.4043z" style="stop-color:#000000"/><path d="m2.9375 1.584v1.4043h0.3418v-1.4043z" style="stop-color:#000000"/><path d="m1.7207 2.1152v0.3418h2.7832v-0.3418z" style="stop-color:#000000"/><path d="m2.6833 4.2566a0.32324 0.32324 0 0 1-0.32324 0.32324 0.32324 0.32324 0 0 1-0.32324-0.32324 0.32324 0.32324 0 0 1 0.32324-0.32324 0.32324 0.32324 0 0 1 0.32324 0.32324z" style="stroke-linecap:round;stroke-linejoin:round;stroke-width:.27358"/><path d="m4.0593 4.2566a0.32324 0.32324 0 0 1-0.32324 0.32324 0.32324 0.32324 0 0 1-0.32324-0.32324 0.32324 0.32324 0 0 1 0.32324-0.32324 0.32324 0.32324 0 0 1 0.32324 0.32324z" style="stroke-linecap:round;stroke-linejoin:round;stroke-width:.27366"/></svg>
