<svg width="20" height="20" version="1.1" viewBox="0 0 5.2917 5.2917" xmlns="http://www.w3.org/2000/svg">
 <path d="m3.8614 1.2006a0.14032 0.14032 0 0 0-0.13565 0.10555l-0.12223 0.48676h-2.2299a0.14032 0.14032 0 0 0-0.1371 0.1712l0.34856 1.5546a0.14031 0.14031 0 0 0 0.06819 0.10736 0.14031 0.14031 0 0 0 0.049691 0.018136 0.14032 0.14032 0 0 0 0.00363 7.229e-4 0.14031 0.14031 0 0 0 0.019224 0.00145h1.593a0.14032 0.14032 0 0 0 0.036995-0.00508 0.14032 0.14032 0 0 0 0.10011-0.10337l0.0185-0.078336 0.49691-1.9793h0.83604a0.14031 0.14031 0 0 0 0.14001-0.13964 0.14031 0.14031 0 0 0-0.14001-0.14001zm-2.3126 0.8734h1.9659l-0.30721 1.2912h-1.3692zm0.46173 1.6812a0.23178 0.23178 0 0 0-0.23177 0.23177 0.23178 0.23178 0 0 0 0.23177 0.23177 0.23178 0.23178 0 0 0 0.23177-0.23177 0.23178 0.23178 0 0 0-0.23177-0.23177zm1.0446 0a0.23178 0.23178 0 0 0-0.23177 0.23177 0.23178 0.23178 0 0 0 0.23177 0.23177 0.23178 0.23178 0 0 0 0.23177-0.23177 0.23178 0.23178 0 0 0-0.23177-0.23177z" style="stop-color:#000000;stroke-linecap:round;stroke-linejoin:round"/>
</svg>
