<svg width="20" height="20" version="1.1" viewBox="0 0 5.2917 5.2917" xml:space="preserve" xmlns="http://www.w3.org/2000/svg"><g transform="matrix(.0095753 0 0 .0095753 -10.579 -2.3517)" style="stroke-width:27.632"><path d="m1164.5 342.39a17.835 17.835 0 0 0-17.744 17.948 17.835 17.835 0 0 0 17.744 17.744h60.165l83.827 278.61a17.837 17.837 0 0 0 16.926 12.645h215.59a17.835 17.835 0 0 0 17.744-17.948 17.835 17.835 0 0 0-17.744-17.744h-202.32l-83.824-278.4a17.837 17.837 0 0 0-16.928-12.85z" style="stop-color:#000000;stroke-linecap:round;stroke-linejoin:round;stroke-width:104.44"/><path d="m1262.8 415.82a17.835 17.835 0 0 0-17.13 22.843l43.441 146.64a17.835 17.835 0 0 0 17.133 12.645h246.38a17.835 17.835 0 0 0 16.928-12.441l45.074-146.64a17.835 17.835 0 0 0-17.13-23.046zm23.659 35.488h286.76l-33.857 110.95h-219.86z" style="stop-color:#000000;stroke-linecap:round;stroke-linejoin:round;stroke-width:104.44"/><path d="m1359.3 430.09-35.078 6.9346 29.776 146.64 34.876-6.9344z" style="stop-color:#000000;stroke-width:104.44"/><path d="m1497.6 430.09-29.574 146.64 34.876 6.9344 29.776-146.64z" style="stop-color:#000000;stroke-width:104.44"/><path d="m1411.5 433.56v146.64h35.691v-146.64z" style="stop-color:#000000;stroke-width:104.44"/><path d="m1284.4 489.03v35.692h290.63v-35.692z" style="stop-color:#000000;stroke-width:104.44"/><g style="stroke-width:27.632"><path d="m1385 712.65a33.754 33.754 0 0 1-33.752 33.754 33.754 33.754 0 0 1-33.755-33.754 33.754 33.754 0 0 1 33.755-33.754 33.754 33.754 0 0 1 33.752 33.754z" style="stroke-linecap:round;stroke-linejoin:round;stroke-width:28.572"/><path d="m1528.6 712.65a33.754 33.754 0 0 1-33.752 33.754 33.754 33.754 0 0 1-33.755-33.754 33.754 33.754 0 0 1 33.755-33.754 33.754 33.754 0 0 1 33.752 33.754z" style="stroke-linecap:round;stroke-linejoin:round;stroke-width:28.58"/></g><g transform="translate(8.4312 12.978)" style="stroke-width:27.632"><path d="m1422.7 352.39c-2.9985-1.4842-4.7856-3.2899-6.25-6.3149-1.8803-3.8842-2.0508-6.0955-2.0508-26.605 0-20.542 0.1682-22.716 2.0601-26.624 2.1757-4.4943 8.1723-8.3758 12.94-8.3758s10.764 3.8816 12.94 8.3758c1.8919 3.9082 2.0601 6.0819 2.0601 26.624 0 20.542-0.1682 22.716-2.0601 26.624-1.4957 3.0897-3.226 4.82-6.3157 6.3157-5.3592 2.5944-8.0499 2.5903-13.323-0.0201z" style="stroke-width:27.632"/><path d="m1492.7 372.39c-5.3139-2.6303-8.8495-9.1511-7.954-14.67 0.4907-3.0239 12.531-25.297 21.373-39.537 6.506-10.478 21.08-10.31 26.584 0.30618 3.0435 5.8703 1.7565 10.128-8.3663 27.678-13.561 23.512-13.996 24.13-18.504 26.323-5.1619 2.512-7.8962 2.4909-13.134-0.10159z" style="stroke-width:27.632"/><path d="m1352.9 372.48c-4.4317-2.2017-4.9904-2.999-18.438-26.313-10.123-17.55-11.41-21.808-8.3663-27.678 5.5041-10.616 20.078-10.784 26.584-0.30618 8.842 14.24 20.882 36.513 21.373 39.537 0.9044 5.5729-2.6573 12.089-8.029 14.69-5.3182 2.5745-8.0557 2.5894-13.124 0.0714z" style="stroke-width:27.632"/></g></g></svg>
