<svg width="24" height="24" version="1.1" viewBox="0 0 24 24" xmlns="http://www.w3.org/2000/svg">
 <path d="m21.553 1.5312a0.91555 0.91555 0 0 1 0.64844 0.26758 0.91555 0.91555 0 0 1 0 1.2949l-8.7285 8.7305-1.2969-1.2969 8.7305-8.7285a0.91555 0.91555 0 0 1 0.64648-0.26758zm-11.025 10.645 1.2969 1.2969-8.7305 8.7285a0.91555 0.91555 0 0 1-1.2949 0 0.91555 0.91555 0 0 1 0-1.2949z" style="-inkscape-stroke:none;color:#000000;stroke-linecap:round"/>
 <path d="m3.0938 1.7988 19.107 19.107a0.91555 0.91555 0 0 1 0 1.2949 0.91555 0.91555 0 0 1-1.2949 0l-19.107-19.107a0.91555 0.91555 0 0 1 0-1.2949 0.91555 0.91555 0 0 1 1.2949 0z" style="-inkscape-stroke:none;color:#000000;stroke-linecap:round"/>
</svg>
