<svg width="24" height="24" version="1.1" viewBox="0 0 24 24" xmlns="http://www.w3.org/2000/svg">
 <path d="m12.583 7.7211a0.23531 0.23531 0 0 0-0.16607 0.067365 0.23531 0.23531 0 0 0 0 0.33352l3.7008 3.7008h-8.803a0.17788 0.17788 0 0 0-0.17579 0.17858 0.17788 0.17788 0 0 0 0.17579 0.17579h8.8058l-3.7035 3.7001a0.23531 0.23531 0 0 0 0 0.33353 0.23531 0.23531 0 0 0 0.33145 0l4.044-4.044a0.23533 0.23533 0 0 0 0-0.33353l-4.044-4.0447a0.23531 0.23531 0 0 0-0.16537-0.067365z" style="stop-color:#000000;stroke-linecap:round;stroke-linejoin:round;stroke-width:3.7796"/>
 <path d="m12 1.6086c-5.7362 0-10.391 4.6552-10.391 10.391 0 5.7362 4.6552 10.391 10.391 10.391 5.7362 0 10.391-4.6552 10.391-10.391 0-5.7362-4.6552-10.391-10.391-10.391zm0 0.46953c5.4824 0 9.9219 4.4395 9.9219 9.9219 0 5.4824-4.4395 9.9219-9.9219 9.9219-5.4824 0-9.9219-4.4395-9.9219-9.9219 0-5.4824 4.4395-9.9219 9.9219-9.9219z" style="stop-color:#000000;stroke-linecap:round;stroke-linejoin:round"/>
</svg>
