<svg width="24" height="24" version="1.1" viewBox="0 0 24 24" xmlns="http://www.w3.org/2000/svg">
 <path d="m6.1904 2.8627c-0.14327 0.001313-0.2466 0.11987-0.38102 0.16214-0.078683 0.024738-0.151 0.054097-0.22429 0.091882a0.88557 0.88557 0 0 0-0.39723 0.16484c-8.731e-4 8.62e-4 -0.0018 0.0018-0.00277 0.00277-0.26886 0.26673-0.42045 0.62915-0.42425 1.0079a0.88557 0.88557 0 0 0 0 0.0054c-0.0018 0.78677 0.65383 1.4461 1.4403 1.4457h10.212l-13.176 13.176a0.88557 0.88557 0 0 0-0.00277 0.0028c-0.49776 0.50164-0.49776 1.3386 0 1.8402a0.88557 0.88557 0 0 0 0.010792 0.0082c0.50019 0.48849 1.3239 0.48854 1.824 0a0.88557 0.88557 0 0 0 0.00816-0.0054l13.182-13.185v10.217c-2.81e-4 0.78648 0.65894 1.4448 1.4457 1.443 0.78114-3e-3 1.4319-0.65377 1.4349-1.4349a0.88557 0.88557 0 0 0 0-0.0054v-13.495c2.3e-4 -0.78542-0.6549-1.4431-1.4403-1.443h-13.501a0.88557 0.88557 0 0 0-0.00816 0zm13.16 1.77h0.01891v0.013559a0.88557 0.88557 0 0 0-0.02432 0.0054 0.88557 0.88557 0 0 0 0.0054-0.018913z" style="stop-color:#000000;stroke-linecap:round;stroke-linejoin:round"/>
</svg>
