<svg clip-rule="evenodd" fill-rule="evenodd" stroke-linejoin="round" stroke-miterlimit="2" version="1.1" viewBox="0 0 24 24" xmlns="http://www.w3.org/2000/svg">
 <path d="m17.832 2.0025h-11.664c-2.3003 0-4.1656 1.8654-4.1656 4.1656v11.664c0 2.3003 1.8654 4.1656 4.1656 4.1656h11.664c2.3011 0 4.1656-1.8654 4.1656-4.1656v-11.664c0-2.3003-1.8645-4.1656-4.1656-4.1656zm-9.1644 15.829h-2.4994v-9.1644h2.4994zm-1.2497-10.221c-0.8048 0-1.458-0.65817-1.458-1.4696 0-0.81146 0.65317-1.4696 1.458-1.4696 0.8048 0 1.458 0.65817 1.458 1.4696 0 0.81146-0.65234 1.4696-1.458 1.4696zm11.247 10.221h-2.4994v-4.6688c0-2.806-3.3325-2.5935-3.3325 0v4.6688h-2.4994v-9.1644h2.4994v1.4705c1.163-2.1545 5.8319-2.3136 5.8319 2.0628z"/>
</svg>
