<svg width="24" height="24" version="1.1" viewBox="0 0 24 24" xmlns="http://www.w3.org/2000/svg">
 <path d="m9.9882 0.67496c-0.35714 0.0036228-0.72318 0.027694-1.0824 0.07266-0.21653 0.026344-0.44805 0.06577-0.65899 0.10709-0.17047 0.03454-0.34224 0.073888-0.50633 0.11628-0.28078 0.072611-0.56497 0.16151-0.83332 0.25848-0.10017 0.036534-0.20281 0.076014-0.29955 0.11467-0.4355 0.17574-0.8574 0.38493-1.2617 0.6239-0.077953 0.046874-0.16721 0.10066-0.24814 0.15246-0.1298 0.082498-0.25888 0.16919-0.38078 0.25532-0.80855 0.57086-1.5249 1.2715-2.1154 2.0658-0.037791 0.052257-0.08584 0.11646-0.1261 0.17444-0.86552 1.2188-1.4295 2.65-1.6241 4.1323-0.042687 0.32105-0.067995 0.64434-0.07729 0.96807-0.002277 0.096306-0.004244 0.20538-0.003312 0.30674 6.0242e-4 0.1612 0.005279 0.31473 0.014264 0.47686 0.005279 0.09927 0.012607 0.19926 0.021416 0.30166 0.008488 0.09556 0.019936 0.2038 0.032036 0.30407 0.010144 0.0877 0.024387 0.18446 0.035949 0.26604 0.014833 0.09645 0.028962 0.1805 0.046227 0.27612 0.015692 0.08373 0.030163 0.16102 0.047335 0.24095 0.14051 0.67254 0.35737 1.3289 0.64361 1.9535 0.02537 0.0534 0.056433 0.12203 0.085519 0.18064 0.75967 1.5726 1.9732 2.9206 3.4541 3.8458 1.0245 0.64262 2.1761 1.0814 3.3688 1.2821 0.14033 0.02375 0.29219 0.04581 0.43777 0.0631 0.15077 0.01818 0.29451 0.03176 0.44722 0.04254 0.47461 0.03412 0.96437 0.03173 1.4435-0.0082 0.36851-0.03043 0.74379-0.08446 1.1006-0.15768 0.11351-0.02363 0.22045-0.04722 0.33498-0.07556 0.64117-0.1569 1.2654-0.38292 1.8585-0.67256 0.11413-0.05614 0.237-0.11892 0.35241-0.18162 0.20094-0.10945 0.40676-0.23057 0.60224-0.3567 0.10358-0.06295 0.19899-0.13907 0.30479-0.19806 0.16863-0.08251 0.38442-0.0268 0.50293 0.11582 1.793 1.7955 3.5879 3.5894 5.383 5.3827 0.21148 0.21223 0.55202 0.28085 0.82842 0.16378 0.14201-0.05325 0.25256-0.16008 0.35519-0.26783 0.19643-0.19817 0.39766-0.39197 0.58843-0.59552 0.19317-0.23577 0.22538-0.58949 0.07357-0.85465-0.08488-0.15477-0.22845-0.26348-0.34706-0.39062-1.8036-1.8036-3.607-3.6074-5.4106-5.411 0.32457-0.43658 0.63462-0.8858 0.89038-1.3668 0.06905-0.12782 0.1405-0.268 0.20522-0.40326 0.4572-0.9539 0.74813-1.987 0.8563-3.0393 0.0039-0.03986 0.0093-0.09892 0.0138-0.14615 0.03169-0.35726 0.04132-0.72371 0.03184-1.0775-0.016643-0.60831-0.093427-1.2198-0.23021-1.8164-0.023652-0.10317-0.052552-0.21991-0.081493-0.32754-0.046083-0.17282-0.097403-0.3436-0.15242-0.51001-0.22228-0.67297-0.52346-1.3196-0.8931-1.9242-0.038826-0.062434-0.085478-0.13757-0.12872-0.20393-0.061733-0.09547-0.11895-0.18061-0.18432-0.27388-1.0161-1.4564-2.4551-2.6149-4.0987-3.289-0.60003-0.24817-1.227-0.43071-1.8657-0.54704-0.046973-0.0078357-0.10216-0.018207-0.15148-0.02601-0.22991-0.038081-0.47322-0.068018-0.71062-0.088886-0.29553-0.024818-0.59207-0.03613-0.88863-0.034007zm0.085923 1.9583c1.2488-5.961e-4 2.4973 0.32209 3.5851 0.93652 1.1394 0.63851 2.1036 1.5856 2.7608 2.7144 0.58772 1.0019 0.9288 2.1461 0.9882 3.306 0.06515 1.2148-0.177 2.4452-0.70285 3.5426-0.58354 1.224-1.5125 2.2803-2.6523 3.0149-1.0001 0.64939-2.1614 1.0474-3.3497 1.1469-1.374 0.11943-2.7812-0.15634-4.0041-0.79557-1.142-0.59173-2.123-1.4888-2.8148-2.5731-0.65955-1.0257-1.0534-2.2196-1.1364-3.4361-0.096326-1.362 0.1948-2.7503 0.84034-3.9543 0.61401-1.1558 1.5426-2.1416 2.6594-2.824 0.9507-0.58495 2.0375-0.94531 3.1491-1.0467 0.22505-0.021197 0.45109-0.030858 0.67711-0.031671z" style="stop-color:#000000"/>
</svg>
