<svg width="49.707mm" height="8.2137mm" version="1.1" viewBox="0 0 49.707 8.2137" xmlns="http://www.w3.org/2000/svg">
 <g transform="translate(-52.895 -135.81)">
  <g transform="matrix(.26458 0 0 .26458 31.958 99.766)">
   <path d="m97.096 137.06 3.9286 7.7974c0.22437 0.44627 0.65899 0.75565 1.1617 0.82688l8.7842 1.2506c1.2654 0.18024 1.7709 1.7037 0.85513 2.5782l-6.3567 6.0698c-0.36336 0.34713-0.52952 0.84737-0.4438 1.3378l1.5007 8.5703c0.21625 1.2347-1.1067 2.1763-2.2384 1.5935l-7.857-4.0463c-0.44969-0.23149-0.98626-0.23149-1.4359 0l-7.8569 4.0463c-1.1317 0.58279-2.4546-0.35881-2.2386-1.5935l1.5007-8.5703c0.08569-0.49043-0.08036-0.99067-0.44372-1.3378l-6.3565-6.0698c-0.9157-0.8745-0.41039-2.3979 0.85492-2.5782l8.7843-1.2506c0.50271-0.0712 0.93722-0.38061 1.1618-0.82688l3.9284-7.7974c0.56596-1.1236 2.2012-1.1236 2.7671 0" style="fill:#ebc018"/>
  </g>
  <g transform="matrix(.26458 0 0 .26458 42.192 99.766)">
   <path d="m97.096 137.06 3.9286 7.7974c0.22437 0.44627 0.65899 0.75565 1.1617 0.82688l8.7842 1.2506c1.2654 0.18024 1.7709 1.7037 0.85513 2.5782l-6.3567 6.0698c-0.36336 0.34713-0.52952 0.84737-0.4438 1.3378l1.5007 8.5703c0.21625 1.2347-1.1067 2.1763-2.2384 1.5935l-7.857-4.0463c-0.44969-0.23149-0.98626-0.23149-1.4359 0l-7.8569 4.0463c-1.1317 0.58279-2.4546-0.35881-2.2386-1.5935l1.5007-8.5703c0.08569-0.49043-0.08036-0.99067-0.44372-1.3378l-6.3565-6.0698c-0.9157-0.8745-0.41039-2.3979 0.85492-2.5782l8.7843-1.2506c0.50271-0.0712 0.93722-0.38061 1.1618-0.82688l3.9284-7.7974c0.56596-1.1236 2.2012-1.1236 2.7671 0" style="fill:#ebc018"/>
  </g>
  <g transform="matrix(.26458 0 0 .26458 52.425 99.766)">
   <path d="m97.096 137.06 3.9286 7.7974c0.22437 0.44627 0.65899 0.75565 1.1617 0.82688l8.7842 1.2506c1.2654 0.18024 1.7709 1.7037 0.85513 2.5782l-6.3567 6.0698c-0.36336 0.34713-0.52952 0.84737-0.4438 1.3378l1.5007 8.5703c0.21625 1.2347-1.1067 2.1763-2.2384 1.5935l-7.857-4.0463c-0.44969-0.23149-0.98626-0.23149-1.4359 0l-7.8569 4.0463c-1.1317 0.58279-2.4546-0.35881-2.2386-1.5935l1.5007-8.5703c0.08569-0.49043-0.08036-0.99067-0.44372-1.3378l-6.3565-6.0698c-0.9157-0.8745-0.41039-2.3979 0.85492-2.5782l8.7843-1.2506c0.50271-0.0712 0.93722-0.38061 1.1618-0.82688l3.9284-7.7974c0.56596-1.1236 2.2012-1.1236 2.7671 0" style="fill:#ebc018"/>
  </g>
  <g transform="matrix(.26458 0 0 .26458 62.658 99.766)">
   <path d="m97.096 137.06 3.9286 7.7974c0.22437 0.44627 0.65899 0.75565 1.1617 0.82688l8.7842 1.2506c1.2654 0.18024 1.7709 1.7037 0.85513 2.5782l-6.3567 6.0698c-0.36336 0.34713-0.52952 0.84737-0.4438 1.3378l1.5007 8.5703c0.21625 1.2347-1.1067 2.1763-2.2384 1.5935l-7.857-4.0463c-0.44969-0.23149-0.98626-0.23149-1.4359 0l-7.8569 4.0463c-1.1317 0.58279-2.4546-0.35881-2.2386-1.5935l1.5007-8.5703c0.08569-0.49043-0.08036-0.99067-0.44372-1.3378l-6.3565-6.0698c-0.9157-0.8745-0.41039-2.3979 0.85492-2.5782l8.7843-1.2506c0.50271-0.0712 0.93722-0.38061 1.1618-0.82688l3.9284-7.7974c0.56596-1.1236 2.2012-1.1236 2.7671 0" style="fill:#ebc018"/>
  </g>
  <g transform="matrix(.26458 0 0 .26458 72.892 99.766)">
   <path d="m97.096 137.06 3.9286 7.7974c0.22437 0.44627 0.65899 0.75565 1.1617 0.82688l8.7842 1.2506c1.2654 0.18024 1.7709 1.7037 0.85513 2.5782l-6.3567 6.0698c-0.36336 0.34713-0.52952 0.84737-0.4438 1.3378l1.5007 8.5703c0.21625 1.2347-1.1067 2.1763-2.2384 1.5935l-7.857-4.0463c-0.44969-0.23149-0.98626-0.23149-1.4359 0l-7.8569 4.0463c-1.1317 0.58279-2.4546-0.35881-2.2386-1.5935l1.5007-8.5703c0.08569-0.49043-0.08036-0.99067-0.44372-1.3378l-6.3565-6.0698c-0.9157-0.8745-0.41039-2.3979 0.85492-2.5782l8.7843-1.2506c0.50271-0.0712 0.93722-0.38061 1.1618-0.82688l3.9284-7.7974c0.56596-1.1236 2.2012-1.1236 2.7671 0" style="fill:#ebc018"/>
  </g>
 </g>
</svg>
