<svg clip-rule="evenodd" fill-rule="evenodd" stroke-linejoin="round" stroke-miterlimit="2" version="1.1" viewBox="0 0 24 24" xmlns="http://www.w3.org/2000/svg">
 <path d="m17.832 21.998h-11.664c-2.3003 0-4.1656-1.8654-4.1656-4.1656v-11.664c0-2.3003 1.8654-4.1656 4.1656-4.1656h11.664c2.3011 0 4.1656 1.8654 4.1656 4.1656v11.664c0 2.3003-1.8645 4.1656-4.1656 4.1656zm-2.2861-4.2889c0.17912 0.12747 0.40906 0.15913 0.61485 0.08081 0.20495-0.07748 0.35658-0.25327 0.4024-0.46655 0.48238-2.2678 1.6538-8.0097 2.0928-10.072 0.03249-0.15579-0.02249-0.31742-0.14413-0.42156-0.12247-0.10331-0.29243-0.1333-0.44322-0.077481-2.3286 0.86145-9.501 3.5524-12.433 4.638-0.18579 0.06832-0.30659 0.24744-0.30076 0.44406 0.00666 0.19578 0.13913 0.36658 0.32908 0.42406 1.3147 0.3924 3.0409 0.93976 3.0409 0.93976s0.80563 2.4361 1.2264 3.6741c0.052487 0.15579 0.17496 0.27826 0.33492 0.31992 0.16079 0.04166 0.33075-0.0017 0.45072-0.11497 0.67566-0.63734 1.7196-1.6229 1.7196-1.6229s1.9837 1.4546 3.1092 2.2553zm-6.1151-4.8188 0.93227 3.0759 0.20745-1.9478s3.6024-3.2492 5.6569-5.1021c0.05998-0.054153 0.06832-0.14496 0.01833-0.20911-0.04999-0.064151-0.1408-0.079147-0.20911-0.035825-2.3802 1.5205-6.6058 4.2189-6.6058 4.2189z" style="clip-rule:evenodd;fill-rule:evenodd;stroke-linejoin:round;stroke-miterlimit:1.4142;stroke-width:.99999"/>
</svg>
