<svg clip-rule="evenodd" fill-rule="evenodd" stroke-linejoin="round" stroke-miterlimit="2" version="1.1" viewBox="0 0 24 24" xmlns="http://www.w3.org/2000/svg">
 <path d="m17.832 2.0025h-11.664c-2.3003 0-4.1656 1.8654-4.1656 4.1656v11.664c0 2.3003 1.8654 4.1656 4.1656 4.1656h11.664c2.3011 0 4.1656-1.8654 4.1656-4.1656v-11.664c0-2.3003-1.8645-4.1656-4.1656-4.1656zm-0.1158 7.6956c0.17412 3.8465-2.6943 8.1355-7.7731 8.1355-1.5446 0-2.9818-0.45239-4.1923-1.2289 1.4513 0.17079 2.8993-0.23161 4.049-1.1322-1.1972-0.02249-2.2069-0.81313-2.5544-1.8995 0.42906 0.08165 0.85062 0.05749 1.2347-0.04665-1.3155-0.26411-2.2228-1.4488-2.1936-2.716 0.36824 0.20495 0.79064 0.32825 1.238 0.34242-1.2172-0.81396-1.5621-2.4219-0.84646-3.6516 1.3488 1.6546 3.3642 2.7435 5.6369 2.8576-0.39907-1.7104 0.89978-3.3575 2.6652-3.3575 0.78564 0 1.4971 0.33158 1.9953 0.86395 0.62318-0.12247 1.2089-0.34991 1.7379-0.66317-0.20495 0.63901-0.63817 1.1747-1.2022 1.513 0.5532-0.06665 1.0806-0.21328 1.5704-0.43073-0.36574 0.54653-0.82979 1.0281-1.3655 1.4138z"/>
</svg>
