<?xml version="1.0" encoding="UTF-8" standalone="no"?>
<svg
   version="1.1"
   width="200"
   height="62.822376"
   id="svg13"
   sodipodi:docname="logo-callore-site.svg"
   inkscape:version="1.2.2 (1:1.2.2+202305151914+b0a8486541)"
   inkscape:export-filename="logo-callore.jpg"
   inkscape:export-xdpi="96"
   inkscape:export-ydpi="96"
   xmlns:inkscape="http://www.inkscape.org/namespaces/inkscape"
   xmlns:sodipodi="http://sodipodi.sourceforge.net/DTD/sodipodi-0.dtd"
   xmlns="http://www.w3.org/2000/svg"
   xmlns:svg="http://www.w3.org/2000/svg">
  <defs
     id="defs17" />
  <sodipodi:namedview
     id="namedview15"
     pagecolor="#ffffff"
     bordercolor="#666666"
     borderopacity="1.0"
     inkscape:showpageshadow="2"
     inkscape:pageopacity="0.0"
     inkscape:pagecheckerboard="0"
     inkscape:deskcolor="#d1d1d1"
     showgrid="false"
     inkscape:zoom="0.37670243"
     inkscape:cx="242.89729"
     inkscape:cy="331.8269"
     inkscape:window-width="1920"
     inkscape:window-height="1011"
     inkscape:window-x="0"
     inkscape:window-y="32"
     inkscape:window-maximized="1"
     inkscape:current-layer="svg13" />
  <g
     id="g240"
     transform="scale(0.16583113)">
    <path
       d="m 191.36892,348.50193 -19.65884,-41.0822 c -2.0056,-4.3247 -4.01204,-3.6039 -7.62216,-1.4412 -7.22195,4.3241 -24.07138,15.4956 -44.13184,15.4956 -22.065213,0 -41.321863,-18.0183 -41.321863,-82.1644 0,-48.65 17.2502,-62.7044 35.705293,-62.7044 18.85643,0 36.50826,13.3343 49.34678,18.7393 3.20963,1.4417 6.01819,1.0818 7.62301,-2.1622 l 19.25637,-41.4421 c 2.00644,-4.6849 0.40078,-6.4869 -4.01176,-9.7306 -18.45424,-14.0543 -48.94543,-22.7031 -74.22,-22.7031 -30.891973,0 -58.573473,10.0905 -79.034723,29.5508 C 8.42513,172.28123 0,203.63313 0,246.51733 c 0,81.4436 36.910167,132.3161 114.74029,132.3161 20.46125,0 48.54465,-5.7667 66.59783,-15.9169 6.41898,-3.6031 13.64093,-7.207 10.0308,-14.4146 z m 197.53047,11.1714 c -4.0126,-9.0095 -9.22754,-18.7389 -9.22754,-43.6048 v -65.5873 c 0,-9.7297 -0.40078,-16.5765 -2.80772,-23.7841 -9.22755,-25.9469 -39.31711,-38.1993 -78.2326,-38.1993 -26.47859,0 -54.16094,3.6037 -74.22084,13.6942 -5.21551,2.5221 -6.01707,2.8829 -4.41338,7.207 l 14.44333,35.6763 c 1.60538,3.6039 3.20935,3.6039 6.82032,2.163 19.65828,-7.2079 35.70614,-11.1717 48.14303,-11.1717 20.86202,0 23.26925,4.3241 23.26925,10.8106 v 10.4516 c -52.15479,0 -106.71679,12.2524 -106.71679,63.0643 0,35.3164 25.27484,57.3585 69.00449,57.3585 18.05318,0 32.49651,-5.8256 47.74196,-16.9973 6.0182,12.6735 8.0238,17.3581 13.64093,17.3581 2.80856,0 5.21494,-0.3608 7.62216,-1.081 l 42.92724,-11.232 c 4.01176,-1.0812 3.20935,-2.8829 2.00616,-6.1261 z m -76.22615,-33.8746 c -8.02436,7.2071 -17.25106,11.5317 -25.27457,11.5317 -10.43157,0 -19.25833,-7.2076 -19.25833,-19.4603 0,-13.6933 10.8332,-22.7028 44.5329,-22.7028 z m 214.3799,33.8746 -10.43074,-37.1183 c -0.80212,-2.5218 -3.20934,-2.5218 -5.61628,-1.8019 -3.61098,1.442 -11.63477,3.6039 -18.85587,3.6039 -3.20935,0 -5.61713,-3.2429 -5.61713,-7.9278 v -197.8433 c 0,-7.2071 -0.80156,-7.2071 -8.42514,-6.1261 l -60.17857,7.2079 c -4.81388,0.7198 -5.21551,2.1619 -5.21551,7.9277 v 176.5814 l 0.40163,14.0544 c 0.80213,21.2611 2.80857,33.8746 15.24461,45.406 10.83292,10.1505 28.08341,15.1962 46.13743,15.1962 14.44333,0 38.11308,-4.6849 49.74869,-13.034 4.01091,-2.5221 3.61013,-3.2431 2.80688,-6.1261 z m 126.92088,0 -10.43073,-37.1183 c -0.8024,-2.5218 -3.20934,-2.5218 -5.61657,-1.8019 -3.61097,1.442 -11.63448,3.6039 -18.85558,3.6039 -3.20963,0 -5.61742,-3.2429 -5.61742,-7.9278 v -197.8433 c 0,-7.2071 -0.80156,-7.2071 -8.42513,-6.1261 l -60.17829,7.2079 c -4.81416,0.7198 -5.21579,2.1619 -5.21579,7.9277 v 176.5814 l 0.40163,14.0544 c 0.8024,21.2611 2.80856,33.8746 15.24489,45.406 10.83292,10.1505 28.08313,15.1962 46.13743,15.1962 14.44305,0 38.11308,-4.6849 49.74841,-13.034 4.01091,-2.5221 3.61012,-3.2431 2.80715,-6.1261 z m 199.93742,-75.6778 c 0,-56.9385 -34.10048,-95.4977 -97.48896,-95.4977 -63.38764,0 -99.09378,38.5592 -99.09378,94.777 0,57.6596 34.5021,95.5586 98.69215,95.5586 62.18558,0 97.89059,-39.3411 97.89059,-94.8379 z m -71.41115,-0.3599 c 0,40.0004 -10.02995,51.1718 -26.88022,51.1718 -16.84943,0 -26.87994,-10.8103 -26.87994,-50.8119 0,-40.7211 10.03051,-51.5326 26.87994,-51.5326 16.85027,0 26.88022,11.1715 26.88022,51.1727 z m 240.45771,-75.6778 c 0.4016,-1.0809 1.6056,-3.6036 -0.4008,-5.7658 -8.0244,-9.3695 -20.4613,-13.6942 -34.10125,-13.6942 -19.2567,0 -31.2928,9.0096 -44.5326,21.983 -5.215,-14.0544 -10.4308,-21.623 -17.2505,-21.623 -2.8086,0 -4.8148,1.0818 -7.222,1.4417 l -44.13043,8.2888 c -4.41395,0.7207 -5.21551,2.1619 -3.61098,6.1258 2.40638,6.4866 10.43074,28.4695 10.43074,51.1727 v 110.9944 c 0,5.7656 0.40078,5.7656 6.01791,5.7656 h 61.78316 c 6.0182,0 5.6174,0 5.6174,-5.7656 v -113.5171 c 10.0288,-9.3698 13.6406,-10.4507 22.0652,-10.4507 12.4369,0 17.251,4.6848 22.0658,6.8468 3.20955,1.442 5.21485,-0.7202 6.41885,-3.2429 z m 183.0882,83.9663 c 0,-66.308 -26.8802,-103.4263 -90.2687,-103.4263 -61.7831,0 -98.6924,41.0822 -98.6924,96.579 0,58.3802 34.1008,93.7566 100.6986,93.7566 22.0661,0 51.3532,-3.9647 78.6334,-20.6018 4.4134,-2.5221 4.8141,-3.6031 2.8077,-6.8468 l -18.0532,-30.2707 c -2.4064,-3.9647 -4.4128,-5.0456 -9.6283,-2.5229 -15.2457,7.5678 -27.6826,13.3336 -51.754,13.3336 -20.0591,0 -31.2928,-9.7297 -33.6997,-34.9558 h 111.9323 c 5.2155,0 8.0243,0.3602 8.0243,-5.0449 z m -67.8021,-33.5143 h -52.1545 c 4.0126,-22.704 10.4313,-30.2718 27.2807,-30.2718 15.6465,0 23.2693,6.8476 24.8738,30.2718 z"
       style="fill:#d8171d;fill-opacity:1;fill-rule:evenodd;stroke-width:2.81645"
       id="path2" />
    <path
       d="m 757.14096,0 v 0 c 9.36921,0 17.03475,8.54484 17.03475,18.98768 v 71.19569 c 0,10.44284 -7.66554,18.98736 -17.03475,18.98736 v 0 c -9.36949,0 -17.03503,-8.54395 -17.03503,-18.98736 V 18.98768 C 740.10593,8.54428 747.77147,0 757.14096,0 Z"
       style="fill:#f79f1b;fill-opacity:1;fill-rule:evenodd;stroke-width:2.81645"
       id="path4" />
    <path
       d="m 911.78505,39.95617 v 0 c -7.92582,-7.92578 -21.63826,-7.18196 -30.47234,1.65185 l -60.22646,60.22645 c -8.8338,8.83376 -9.57762,22.54656 -1.65156,30.47236 v 0 c 7.92578,7.9257 21.63767,7.1825 30.47204,-1.6519 l 60.2265,-60.22644 c 8.83432,-8.83436 9.57762,-22.54654 1.65182,-30.47232 z"
       style="fill:#f07c00;fill-opacity:1;fill-rule:evenodd;stroke-width:2.81645"
       id="path6" />
    <path
       d="m 631.62773,54.77719 v 0 c 5.28958,-5.28958 14.44164,-4.79332 20.33732,1.10264 l 40.19585,40.19556 c 5.89596,5.89596 6.39222,15.04774 1.10236,20.33764 v 0 c -5.28958,5.2898 -14.44136,4.7936 -20.33732,-1.1024 L 632.73009,75.11479 c -5.89624,-5.89625 -6.39222,-15.04774 -1.10236,-20.3376 z"
       style="fill:#fecc07;fill-opacity:1;fill-rule:evenodd;stroke-width:2.81645"
       id="path8" />
  </g>
</svg>
