<?xml version="1.0" encoding="UTF-8" standalone="no"?>
<svg
   id="svg8"
   enable-background="new 0 0 10 10"
   viewBox="0 0 10 10"
   xml:space="preserve"
   y="0px"
   x="0px"
   version="1.1"
   sodipodi:docname="whatsapp-s.svg"
   inkscape:version="1.2.2 (1:1.2.2+202305151914+b0a8486541)"
   xmlns:inkscape="http://www.inkscape.org/namespaces/inkscape"
   xmlns:sodipodi="http://sodipodi.sourceforge.net/DTD/sodipodi-0.dtd"
   xmlns:xlink="http://www.w3.org/1999/xlink"
   xmlns="http://www.w3.org/2000/svg"
   xmlns:svg="http://www.w3.org/2000/svg"
   xmlns:rdf="http://www.w3.org/1999/02/22-rdf-syntax-ns#"
   xmlns:cc="http://creativecommons.org/ns#"
   xmlns:dc="http://purl.org/dc/elements/1.1/"><sodipodi:namedview
   id="namedview11210"
   pagecolor="#ffffff"
   bordercolor="#666666"
   borderopacity="1.0"
   inkscape:showpageshadow="2"
   inkscape:pageopacity="0.0"
   inkscape:pagecheckerboard="0"
   inkscape:deskcolor="#d1d1d1"
   showgrid="false"
   inkscape:zoom="23.6"
   inkscape:cx="-4.1101695"
   inkscape:cy="5"
   inkscape:window-width="1920"
   inkscape:window-height="1011"
   inkscape:window-x="0"
   inkscape:window-y="32"
   inkscape:window-maximized="1"
   inkscape:current-layer="svg8" /><metadata
   id="metadata14"><rdf:RDF><cc:Work
       rdf:about=""><dc:format>image/svg+xml</dc:format><dc:type
         rdf:resource="http://purl.org/dc/dcmitype/StillImage" /></cc:Work></rdf:RDF></metadata><defs
   id="defs12"><linearGradient
     xlink:href="#linearGradient136"
     id="linearGradient1043"
     x1="1.3418022"
     y1="5"
     x2="8.5900002"
     y2="5"
     gradientUnits="userSpaceOnUse"
     gradientTransform="matrix(1.2879282,0,0,1.2879282,-1.4229671,-1.4550275)" /><linearGradient
     x1="0"
     y1="0"
     x2="1"
     y2="0"
     gradientUnits="userSpaceOnUse"
     gradientTransform="matrix(0,-6.5383378,6.5383378,0,14.931381,4.9134837)"
     spreadMethod="pad"
     id="linearGradient136"><stop
       style="stop-opacity:1;stop-color:#20b038"
       offset="0"
       id="stop132" /><stop
       style="stop-opacity:1;stop-color:#60d66a"
       offset="1"
       id="stop134" /></linearGradient></defs>
     
     
     
     <path
   style="color:#000000;font-style:normal;font-variant:normal;font-weight:normal;font-stretch:normal;font-size:medium;line-height:normal;font-family:sans-serif;font-variant-ligatures:normal;font-variant-position:normal;font-variant-caps:normal;font-variant-numeric:normal;font-variant-alternates:normal;font-variant-east-asian:normal;font-feature-settings:normal;font-variation-settings:normal;text-indent:0;text-align:start;text-decoration:none;text-decoration-line:none;text-decoration-style:solid;text-decoration-color:#000000;letter-spacing:normal;word-spacing:normal;text-transform:none;writing-mode:lr-tb;direction:ltr;text-orientation:mixed;dominant-baseline:auto;baseline-shift:baseline;text-anchor:start;white-space:normal;shape-padding:0;shape-margin:0;inline-size:0;clip-rule:nonzero;display:inline;overflow:visible;visibility:visible;opacity:1;isolation:auto;mix-blend-mode:normal;color-interpolation:sRGB;color-interpolation-filters:linearRGB;solid-color:#000000;solid-opacity:1;vector-effect:none;fill:url(#linearGradient1043);fill-opacity:1;fill-rule:nonzero;stroke:#ffffff;stroke-width:0.696029;stroke-linecap:butt;stroke-linejoin:miter;stroke-miterlimit:4;stroke-dasharray:none;stroke-dashoffset:0;stroke-opacity:1;color-rendering:auto;image-rendering:auto;shape-rendering:auto;text-rendering:auto;enable-background:accumulate;stop-color:#000000;stop-opacity:1"
   d="M 5.0942953,0.34801434 C 2.5880063,0.34909787 0.54789715,2.3877654 0.54825481,4.8940547 0.54832925,5.6352572 0.77995695,6.3493115 1.1252424,7.0027758 L 0.39301156,9.6212123 3.0968318,8.9329671 C 3.7211861,9.2410498 4.3963342,9.4424026 5.0942953,9.4426826 7.6015982,9.4430405 9.6406935,7.4013578 9.6403357,4.8940547 9.6406931,2.3867519 7.601598,0.34765616 5.0942953,0.34801434 Z"
   id="path2291" /><path
   d="M 7.3185185,6.0227314 C 7.2896624,5.9754619 7.2135343,5.9470733 7.099988,5.8905339 6.9858543,5.8341124 6.4245727,5.5599814 6.3202917,5.5223276 6.2158944,5.4846725 6.1391798,5.4657902 6.0636383,5.5788638 5.9875101,5.6921757 5.7688623,5.9470701 5.7021184,6.0227287 5.6357257,6.0985052 5.5693343,6.1076547 5.4552009,6.051 5.3409502,5.9945796 4.9732133,5.8745806 4.5375593,5.4894828 4.1986785,5.1890766 3.9698253,4.8187592 3.9028467,4.7055641 3.8366897,4.5924865 3.8962783,4.531138 3.952817,4.4747166 4.004311,4.4236914 4.0670678,4.3425189 4.1240757,4.2767137 4.1812043,4.2103223 4.2002038,4.1630502 4.2382093,4.0873909 4.2762173,4.0117328 4.2573286,3.9459265 4.2284726,3.8893874 4.2002012,3.8328512 3.971819,3.2757888 3.876688,3.0489295 3.7821438,2.8227742 3.687013,2.8312201 3.6200347,2.8312201 c -0.066391,0 -0.1894405,0.019705 -0.1894405,0.019705 0,0 -0.2287358,0.02827 -0.3331333,0.1414643 -0.1043969,0.1131947 -0.399056,0.3873265 -0.399056,0.9437996 0,0.5569423 0.4084404,1.0954686 0.4654485,1.1704242 0.057122,0.075777 0.7889626,1.2559359 1.9487123,1.7093022 C 6.2724323,7.2689303 6.2724323,7.1177296 6.4816962,7.0986096 6.6904912,7.0803121 7.1564095,6.8250649 7.251657,6.5606701 7.3467833,6.2962747 7.3467833,6.0695326 7.3185133,6.02273"
   style="fill:#ffffff;fill-opacity:1;fill-rule:evenodd;stroke:none;stroke-width:0.1173"
   id="path94" /></svg>
